<mxfile host="app.diagrams.net" modified="2024-04-18T15:36:17.173Z" agent="Mozilla/5.0 (Windows NT 10.0; Win64; x64; rv:125.0) Gecko/20100101 Firefox/125.0" etag="L_n89Ao74XdGRby7kavp" version="24.2.5" type="device">
  <diagram name="PÃ¡gina-1" id="HrqIQkSg-G_eSxZwgBIp">
    <mxGraphModel dx="5901" dy="2574" grid="1" gridSize="10" guides="1" tooltips="1" connect="1" arrows="1" fold="1" page="1" pageScale="1" pageWidth="827" pageHeight="1169" math="0" shadow="0">
      <root>
        <mxCell id="0" />
        <mxCell id="1" parent="0" />
        <mxCell id="mYdgeM181ZoT6w7scXNc-96" value="" style="rounded=1;whiteSpace=wrap;html=1;" vertex="1" parent="1">
          <mxGeometry x="-2690" y="-60" width="3840" height="1340" as="geometry" />
        </mxCell>
        <mxCell id="mYdgeM181ZoT6w7scXNc-94" value="" style="rounded=1;whiteSpace=wrap;html=1;" vertex="1" parent="1">
          <mxGeometry x="-1130" y="40" width="2200" height="1140" as="geometry" />
        </mxCell>
        <mxCell id="mYdgeM181ZoT6w7scXNc-10" value="&lt;font style=&quot;font-size: 18px;&quot;&gt;PostGreSQL&lt;/font&gt;" style="shape=cylinder3;whiteSpace=wrap;html=1;boundedLbl=1;backgroundOutline=1;size=15;" vertex="1" parent="1">
          <mxGeometry x="1200" y="480" width="140" height="250" as="geometry" />
        </mxCell>
        <mxCell id="mYdgeM181ZoT6w7scXNc-11" value="&lt;font style=&quot;font-size: 18px;&quot;&gt;babytreasure&lt;/font&gt;" style="text;html=1;align=center;verticalAlign=middle;resizable=0;points=[];autosize=1;strokeColor=none;fillColor=none;" vertex="1" parent="1">
          <mxGeometry x="1205" y="430" width="130" height="40" as="geometry" />
        </mxCell>
        <mxCell id="mYdgeM181ZoT6w7scXNc-12" value="" style="rounded=1;whiteSpace=wrap;html=1;" vertex="1" parent="1">
          <mxGeometry x="220" y="150" width="330" height="640" as="geometry" />
        </mxCell>
        <mxCell id="mYdgeM181ZoT6w7scXNc-13" value="&lt;font style=&quot;font-size: 24px;&quot;&gt;REST&lt;/font&gt;" style="text;html=1;align=center;verticalAlign=middle;resizable=0;points=[];autosize=1;strokeColor=none;fillColor=none;" vertex="1" parent="1">
          <mxGeometry x="340" y="110" width="90" height="40" as="geometry" />
        </mxCell>
        <mxCell id="mYdgeM181ZoT6w7scXNc-9" value="&lt;font style=&quot;font-size: 18px;&quot;&gt;signup&lt;/font&gt;" style="text;html=1;align=center;verticalAlign=middle;resizable=0;points=[];autosize=1;strokeColor=none;fillColor=none;" vertex="1" parent="1">
          <mxGeometry x="345" y="170" width="80" height="40" as="geometry" />
        </mxCell>
        <mxCell id="mYdgeM181ZoT6w7scXNc-14" value="&lt;font style=&quot;font-size: 18px;&quot;&gt;signin&lt;/font&gt;" style="text;html=1;align=center;verticalAlign=middle;resizable=0;points=[];autosize=1;strokeColor=none;fillColor=none;" vertex="1" parent="1">
          <mxGeometry x="350" y="210" width="70" height="40" as="geometry" />
        </mxCell>
        <mxCell id="mYdgeM181ZoT6w7scXNc-15" value="&lt;font style=&quot;font-size: 18px;&quot;&gt;nuevoanuncio&lt;/font&gt;" style="text;html=1;align=center;verticalAlign=middle;resizable=0;points=[];autosize=1;strokeColor=none;fillColor=none;" vertex="1" parent="1">
          <mxGeometry x="315" y="250" width="140" height="40" as="geometry" />
        </mxCell>
        <mxCell id="mYdgeM181ZoT6w7scXNc-16" value="&lt;font style=&quot;font-size: 18px;&quot;&gt;defaultimage&lt;/font&gt;" style="text;html=1;align=center;verticalAlign=middle;resizable=0;points=[];autosize=1;strokeColor=none;fillColor=none;" vertex="1" parent="1">
          <mxGeometry x="320" y="290" width="130" height="40" as="geometry" />
        </mxCell>
        <mxCell id="mYdgeM181ZoT6w7scXNc-17" value="&lt;font style=&quot;font-size: 18px;&quot;&gt;nuevapassword&lt;/font&gt;" style="text;html=1;align=center;verticalAlign=middle;resizable=0;points=[];autosize=1;strokeColor=none;fillColor=none;" vertex="1" parent="1">
          <mxGeometry x="315" y="330" width="150" height="40" as="geometry" />
        </mxCell>
        <mxCell id="mYdgeM181ZoT6w7scXNc-18" value="&lt;font style=&quot;font-size: 18px;&quot;&gt;borraranuncio/{id}&lt;/font&gt;" style="text;html=1;align=center;verticalAlign=middle;resizable=0;points=[];autosize=1;strokeColor=none;fillColor=none;" vertex="1" parent="1">
          <mxGeometry x="310" y="370" width="170" height="40" as="geometry" />
        </mxCell>
        <mxCell id="mYdgeM181ZoT6w7scXNc-19" value="&lt;font style=&quot;font-size: 18px;&quot;&gt;usuarioPorApodo/{apodo}&lt;/font&gt;" style="text;html=1;align=center;verticalAlign=middle;resizable=0;points=[];autosize=1;strokeColor=none;fillColor=none;" vertex="1" parent="1">
          <mxGeometry x="275" y="410" width="230" height="40" as="geometry" />
        </mxCell>
        <mxCell id="mYdgeM181ZoT6w7scXNc-20" value="&lt;div&gt;&lt;font style=&quot;font-size: 18px;&quot;&gt;actualizarUsuario&lt;/font&gt;&lt;/div&gt;" style="text;html=1;align=center;verticalAlign=middle;resizable=0;points=[];autosize=1;strokeColor=none;fillColor=none;" vertex="1" parent="1">
          <mxGeometry x="305" y="450" width="160" height="40" as="geometry" />
        </mxCell>
        <mxCell id="mYdgeM181ZoT6w7scXNc-21" value="&lt;font style=&quot;font-size: 18px;&quot;&gt;bajaUsuario&lt;/font&gt;" style="text;html=1;align=center;verticalAlign=middle;resizable=0;points=[];autosize=1;strokeColor=none;fillColor=none;" vertex="1" parent="1">
          <mxGeometry x="325" y="490" width="120" height="40" as="geometry" />
        </mxCell>
        <mxCell id="mYdgeM181ZoT6w7scXNc-22" value="&lt;div&gt;&lt;font style=&quot;font-size: 18px;&quot;&gt;misChats&lt;/font&gt;&lt;/div&gt;" style="text;html=1;align=center;verticalAlign=middle;resizable=0;points=[];autosize=1;strokeColor=none;fillColor=none;" vertex="1" parent="1">
          <mxGeometry x="335" y="530" width="100" height="40" as="geometry" />
        </mxCell>
        <mxCell id="mYdgeM181ZoT6w7scXNc-26" value="" style="shape=link;html=1;rounded=0;" edge="1" parent="1" target="mYdgeM181ZoT6w7scXNc-12">
          <mxGeometry width="100" relative="1" as="geometry">
            <mxPoint x="220" y="600" as="sourcePoint" />
            <mxPoint x="320" y="600" as="targetPoint" />
          </mxGeometry>
        </mxCell>
        <mxCell id="mYdgeM181ZoT6w7scXNc-27" value="" style="endArrow=none;html=1;rounded=0;" edge="1" parent="1">
          <mxGeometry width="50" height="50" relative="1" as="geometry">
            <mxPoint x="228.5" y="584.5" as="sourcePoint" />
            <mxPoint x="541.5" y="584.5" as="targetPoint" />
          </mxGeometry>
        </mxCell>
        <mxCell id="mYdgeM181ZoT6w7scXNc-29" value="&lt;div&gt;&lt;font style=&quot;font-size: 18px;&quot;&gt;categorias&lt;br&gt;&lt;/font&gt;&lt;/div&gt;" style="text;html=1;align=center;verticalAlign=middle;resizable=0;points=[];autosize=1;strokeColor=none;fillColor=none;" vertex="1" parent="1">
          <mxGeometry x="330" y="600" width="110" height="40" as="geometry" />
        </mxCell>
        <mxCell id="mYdgeM181ZoT6w7scXNc-30" value="&lt;font style=&quot;font-size: 18px;&quot;&gt;anunciosFiltrados&lt;/font&gt;" style="text;html=1;align=center;verticalAlign=middle;resizable=0;points=[];autosize=1;strokeColor=none;fillColor=none;" vertex="1" parent="1">
          <mxGeometry x="310" y="650" width="160" height="40" as="geometry" />
        </mxCell>
        <mxCell id="mYdgeM181ZoT6w7scXNc-31" value="&lt;font style=&quot;font-size: 18px;&quot;&gt;enviarEmailRecuperacion&lt;/font&gt;" style="text;html=1;align=center;verticalAlign=middle;resizable=0;points=[];autosize=1;strokeColor=none;fillColor=none;" vertex="1" parent="1">
          <mxGeometry x="275" y="700" width="230" height="40" as="geometry" />
        </mxCell>
        <mxCell id="mYdgeM181ZoT6w7scXNc-36" value="&lt;font style=&quot;font-size: 18px;&quot;&gt;JWT Token&lt;/font&gt;" style="text;html=1;align=center;verticalAlign=middle;resizable=0;points=[];autosize=1;strokeColor=none;fillColor=none;" vertex="1" parent="1">
          <mxGeometry x="-730" y="360" width="110" height="40" as="geometry" />
        </mxCell>
        <mxCell id="mYdgeM181ZoT6w7scXNc-40" value="" style="shape=flexArrow;endArrow=classic;html=1;rounded=0;entryX=0;entryY=0.128;entryDx=0;entryDy=0;entryPerimeter=0;" edge="1" parent="1" target="mYdgeM181ZoT6w7scXNc-46">
          <mxGeometry width="50" height="50" relative="1" as="geometry">
            <mxPoint x="550" y="441" as="sourcePoint" />
            <mxPoint x="650" y="440" as="targetPoint" />
          </mxGeometry>
        </mxCell>
        <mxCell id="mYdgeM181ZoT6w7scXNc-46" value="&lt;div&gt;&lt;font style=&quot;font-size: 24px;&quot;&gt;Entities (registros)&lt;br&gt;&lt;/font&gt;&lt;/div&gt;&lt;div&gt;&lt;font style=&quot;font-size: 24px;&quot;&gt;y&lt;/font&gt;&lt;/div&gt;&lt;div&gt;&lt;font style=&quot;font-size: 24px;&quot;&gt;Repositories (tablas)&lt;br&gt;&lt;/font&gt; &lt;/div&gt;" style="rounded=1;whiteSpace=wrap;html=1;" vertex="1" parent="1">
          <mxGeometry x="730" y="390" width="240" height="400" as="geometry" />
        </mxCell>
        <mxCell id="mYdgeM181ZoT6w7scXNc-47" value="" style="shape=flexArrow;endArrow=classic;html=1;rounded=0;" edge="1" parent="1">
          <mxGeometry width="50" height="50" relative="1" as="geometry">
            <mxPoint x="730" y="509.5" as="sourcePoint" />
            <mxPoint x="550" y="509.5" as="targetPoint" />
          </mxGeometry>
        </mxCell>
        <mxCell id="mYdgeM181ZoT6w7scXNc-48" value="" style="shape=flexArrow;endArrow=classic;html=1;rounded=0;" edge="1" parent="1">
          <mxGeometry width="50" height="50" relative="1" as="geometry">
            <mxPoint x="550" y="618" as="sourcePoint" />
            <mxPoint x="730" y="618" as="targetPoint" />
          </mxGeometry>
        </mxCell>
        <mxCell id="mYdgeM181ZoT6w7scXNc-49" value="" style="shape=flexArrow;endArrow=classic;html=1;rounded=0;" edge="1" parent="1">
          <mxGeometry width="50" height="50" relative="1" as="geometry">
            <mxPoint x="730" y="689" as="sourcePoint" />
            <mxPoint x="550" y="689" as="targetPoint" />
          </mxGeometry>
        </mxCell>
        <mxCell id="mYdgeM181ZoT6w7scXNc-51" value="" style="shape=flexArrow;endArrow=classic;html=1;rounded=0;" edge="1" parent="1">
          <mxGeometry width="50" height="50" relative="1" as="geometry">
            <mxPoint x="1200" y="669.23" as="sourcePoint" />
            <mxPoint x="970" y="669.23" as="targetPoint" />
          </mxGeometry>
        </mxCell>
        <mxCell id="mYdgeM181ZoT6w7scXNc-52" value="" style="shape=flexArrow;endArrow=classic;html=1;rounded=0;entryX=0;entryY=0;entryDx=0;entryDy=180;entryPerimeter=0;" edge="1" parent="1">
          <mxGeometry width="50" height="50" relative="1" as="geometry">
            <mxPoint x="975" y="560" as="sourcePoint" />
            <mxPoint x="1205" y="560.0000000000005" as="targetPoint" />
          </mxGeometry>
        </mxCell>
        <mxCell id="mYdgeM181ZoT6w7scXNc-53" value="&lt;font style=&quot;font-size: 24px;&quot;&gt;JPA&lt;/font&gt;" style="text;html=1;align=center;verticalAlign=middle;resizable=0;points=[];autosize=1;strokeColor=none;fillColor=none;" vertex="1" parent="1">
          <mxGeometry x="805" y="350" width="70" height="40" as="geometry" />
        </mxCell>
        <mxCell id="mYdgeM181ZoT6w7scXNc-56" value="&lt;font style=&quot;font-size: 18px;&quot;&gt;Hibernate&lt;/font&gt;" style="text;html=1;align=center;verticalAlign=middle;resizable=0;points=[];autosize=1;strokeColor=none;fillColor=none;" vertex="1" parent="1">
          <mxGeometry x="1030" y="585" width="100" height="40" as="geometry" />
        </mxCell>
        <mxCell id="mYdgeM181ZoT6w7scXNc-57" value="&lt;font style=&quot;font-size: 18px;&quot;&gt;DTO&lt;br&gt;Data Transfer Object&lt;/font&gt;" style="rounded=1;whiteSpace=wrap;html=1;" vertex="1" parent="1">
          <mxGeometry x="-120" y="270" width="180" height="170" as="geometry" />
        </mxCell>
        <mxCell id="mYdgeM181ZoT6w7scXNc-60" value="&lt;font style=&quot;font-size: 18px;&quot;&gt;DTO&lt;br&gt;Data Transfer Object&lt;/font&gt;" style="rounded=1;whiteSpace=wrap;html=1;" vertex="1" parent="1">
          <mxGeometry x="-120" y="635" width="180" height="125" as="geometry" />
        </mxCell>
        <mxCell id="mYdgeM181ZoT6w7scXNc-62" value="" style="shape=flexArrow;endArrow=classic;startArrow=classic;html=1;rounded=0;" edge="1" parent="1">
          <mxGeometry width="100" height="100" relative="1" as="geometry">
            <mxPoint x="60" y="395" as="sourcePoint" />
            <mxPoint x="220" y="395" as="targetPoint" />
          </mxGeometry>
        </mxCell>
        <mxCell id="mYdgeM181ZoT6w7scXNc-67" value="" style="shape=flexArrow;endArrow=classic;startArrow=classic;html=1;rounded=0;" edge="1" parent="1">
          <mxGeometry width="100" height="100" relative="1" as="geometry">
            <mxPoint x="60" y="669.5" as="sourcePoint" />
            <mxPoint x="220" y="670" as="targetPoint" />
          </mxGeometry>
        </mxCell>
        <mxCell id="mYdgeM181ZoT6w7scXNc-68" value="&lt;div&gt;&lt;font style=&quot;font-size: 18px;&quot;&gt;JWTAuthFilter&lt;/font&gt;&lt;/div&gt;&lt;div&gt;&lt;font style=&quot;font-size: 14px;&quot;&gt;&lt;br&gt;&lt;/font&gt;&lt;/div&gt;&lt;div&gt;&lt;font size=&quot;3&quot;&gt;verifica si trae no trae token y es publico o trae token y es privado &lt;br&gt;&lt;/font&gt;&lt;/div&gt;" style="rounded=1;whiteSpace=wrap;html=1;" vertex="1" parent="1">
          <mxGeometry x="-450" y="360" width="180" height="240" as="geometry" />
        </mxCell>
        <mxCell id="mYdgeM181ZoT6w7scXNc-78" value="&lt;font style=&quot;font-size: 18px;&quot;&gt;Data&lt;/font&gt;" style="text;html=1;align=center;verticalAlign=middle;resizable=0;points=[];autosize=1;strokeColor=none;fillColor=none;" vertex="1" parent="1">
          <mxGeometry x="-575" y="360" width="60" height="40" as="geometry" />
        </mxCell>
        <mxCell id="mYdgeM181ZoT6w7scXNc-79" value="&lt;font style=&quot;font-size: 18px;&quot;&gt;Data (tipo JSON)&lt;/font&gt;" style="text;html=1;align=center;verticalAlign=middle;resizable=0;points=[];autosize=1;strokeColor=none;fillColor=none;" vertex="1" parent="1">
          <mxGeometry x="-500" y="650" width="160" height="40" as="geometry" />
        </mxCell>
        <mxCell id="mYdgeM181ZoT6w7scXNc-81" value="" style="shape=flexArrow;endArrow=classic;html=1;rounded=0;exitX=1.028;exitY=0.176;exitDx=0;exitDy=0;exitPerimeter=0;" edge="1" parent="1" source="mYdgeM181ZoT6w7scXNc-68">
          <mxGeometry width="50" height="50" relative="1" as="geometry">
            <mxPoint x="-300" y="404.5" as="sourcePoint" />
            <mxPoint x="-120" y="404.5" as="targetPoint" />
          </mxGeometry>
        </mxCell>
        <mxCell id="mYdgeM181ZoT6w7scXNc-84" value="" style="shape=flexArrow;endArrow=classic;html=1;rounded=0;entryX=-0.05;entryY=0.192;entryDx=0;entryDy=0;entryPerimeter=0;" edge="1" parent="1" target="mYdgeM181ZoT6w7scXNc-68">
          <mxGeometry width="50" height="50" relative="1" as="geometry">
            <mxPoint x="-760" y="410" as="sourcePoint" />
            <mxPoint x="-580" y="410" as="targetPoint" />
          </mxGeometry>
        </mxCell>
        <mxCell id="mYdgeM181ZoT6w7scXNc-88" value="" style="rounded=1;whiteSpace=wrap;html=1;" vertex="1" parent="1">
          <mxGeometry x="-960" y="315" width="190" height="130" as="geometry" />
        </mxCell>
        <mxCell id="mYdgeM181ZoT6w7scXNc-3" value="&lt;div&gt;&lt;font style=&quot;font-size: 36px;&quot;&gt;/auth/...&lt;/font&gt;&lt;/div&gt;&amp;nbsp;" style="text;html=1;align=center;verticalAlign=middle;resizable=0;points=[];autosize=1;strokeColor=none;fillColor=none;" vertex="1" parent="1">
          <mxGeometry x="-935" y="355" width="140" height="70" as="geometry" />
        </mxCell>
        <mxCell id="mYdgeM181ZoT6w7scXNc-89" value="" style="shape=flexArrow;endArrow=classic;html=1;rounded=0;entryX=1.016;entryY=0.115;entryDx=0;entryDy=0;entryPerimeter=0;" edge="1" parent="1" target="mYdgeM181ZoT6w7scXNc-88">
          <mxGeometry width="50" height="50" relative="1" as="geometry">
            <mxPoint x="-120" y="330" as="sourcePoint" />
            <mxPoint x="-300" y="330" as="targetPoint" />
          </mxGeometry>
        </mxCell>
        <mxCell id="mYdgeM181ZoT6w7scXNc-90" value="&lt;font style=&quot;font-size: 14px;&quot;&gt;Response&lt;/font&gt;" style="text;html=1;align=center;verticalAlign=middle;resizable=0;points=[];autosize=1;strokeColor=none;fillColor=none;" vertex="1" parent="1">
          <mxGeometry x="-495" y="288" width="90" height="30" as="geometry" />
        </mxCell>
        <mxCell id="mYdgeM181ZoT6w7scXNc-91" value="" style="rounded=1;whiteSpace=wrap;html=1;" vertex="1" parent="1">
          <mxGeometry x="-940" y="650" width="190" height="150" as="geometry" />
        </mxCell>
        <mxCell id="mYdgeM181ZoT6w7scXNc-5" value="&lt;div&gt;&lt;font style=&quot;font-size: 36px;&quot;&gt;/public/...&lt;/font&gt;&lt;/div&gt;" style="text;html=1;align=center;verticalAlign=middle;resizable=0;points=[];autosize=1;strokeColor=none;fillColor=none;" vertex="1" parent="1">
          <mxGeometry x="-930" y="695" width="170" height="60" as="geometry" />
        </mxCell>
        <mxCell id="mYdgeM181ZoT6w7scXNc-93" value="&lt;font style=&quot;font-size: 14px;&quot;&gt;Response&lt;/font&gt;" style="text;html=1;align=center;verticalAlign=middle;resizable=0;points=[];autosize=1;strokeColor=none;fillColor=none;" vertex="1" parent="1">
          <mxGeometry x="-480" y="710" width="90" height="30" as="geometry" />
        </mxCell>
        <mxCell id="mYdgeM181ZoT6w7scXNc-95" value="&lt;font style=&quot;font-size: 36px;&quot;&gt;Tomcat&lt;/font&gt;" style="text;html=1;align=center;verticalAlign=middle;resizable=0;points=[];autosize=1;strokeColor=none;fillColor=none;" vertex="1" parent="1">
          <mxGeometry x="-90" y="-10" width="140" height="60" as="geometry" />
        </mxCell>
        <mxCell id="mYdgeM181ZoT6w7scXNc-97" value="&lt;font style=&quot;font-size: 36px;&quot;&gt;EC2&lt;/font&gt;" style="text;html=1;align=center;verticalAlign=middle;resizable=0;points=[];autosize=1;strokeColor=none;fillColor=none;" vertex="1" parent="1">
          <mxGeometry x="-1690" y="-130" width="90" height="60" as="geometry" />
        </mxCell>
        <mxCell id="mYdgeM181ZoT6w7scXNc-99" value="" style="rounded=1;whiteSpace=wrap;html=1;" vertex="1" parent="1">
          <mxGeometry x="-2540" y="50" width="1180" height="880" as="geometry" />
        </mxCell>
        <mxCell id="mYdgeM181ZoT6w7scXNc-100" value="&lt;font style=&quot;font-size: 36px;&quot;&gt;Nginx&lt;/font&gt;" style="text;html=1;align=center;verticalAlign=middle;resizable=0;points=[];autosize=1;strokeColor=none;fillColor=none;" vertex="1" parent="1">
          <mxGeometry x="-2410" y="-20" width="120" height="60" as="geometry" />
        </mxCell>
        <mxCell id="mYdgeM181ZoT6w7scXNc-101" value="" style="rounded=1;whiteSpace=wrap;html=1;" vertex="1" parent="1">
          <mxGeometry x="-2481" y="360" width="190" height="240" as="geometry" />
        </mxCell>
        <mxCell id="mYdgeM181ZoT6w7scXNc-102" value="&lt;font style=&quot;font-size: 24px;&quot;&gt;WebModules&lt;/font&gt;" style="text;html=1;align=center;verticalAlign=middle;resizable=0;points=[];autosize=1;strokeColor=none;fillColor=none;" vertex="1" parent="1">
          <mxGeometry x="-2466" y="315" width="160" height="40" as="geometry" />
        </mxCell>
        <mxCell id="mYdgeM181ZoT6w7scXNc-104" value="&lt;font style=&quot;font-size: 18px;&quot;&gt;Controlador&lt;/font&gt;" style="text;html=1;align=center;verticalAlign=middle;resizable=0;points=[];autosize=1;strokeColor=none;fillColor=none;" vertex="1" parent="1">
          <mxGeometry x="-2446" y="480" width="120" height="40" as="geometry" />
        </mxCell>
        <mxCell id="mYdgeM181ZoT6w7scXNc-105" value="&lt;font style=&quot;font-size: 18px;&quot;&gt;Modelo&lt;/font&gt;" style="text;html=1;align=center;verticalAlign=middle;resizable=0;points=[];autosize=1;strokeColor=none;fillColor=none;" vertex="1" parent="1">
          <mxGeometry x="-2426" y="370" width="80" height="40" as="geometry" />
        </mxCell>
        <mxCell id="mYdgeM181ZoT6w7scXNc-106" value="&lt;font style=&quot;font-size: 18px;&quot;&gt;Vista&lt;/font&gt;" style="text;html=1;align=center;verticalAlign=middle;resizable=0;points=[];autosize=1;strokeColor=none;fillColor=none;" vertex="1" parent="1">
          <mxGeometry x="-2416" y="440" width="60" height="40" as="geometry" />
        </mxCell>
        <mxCell id="mYdgeM181ZoT6w7scXNc-107" value="&lt;font style=&quot;font-size: 24px;&quot;&gt;API REST&lt;/font&gt;" style="rounded=1;whiteSpace=wrap;html=1;" vertex="1" parent="1">
          <mxGeometry x="-1890" y="170" width="360" height="520" as="geometry" />
        </mxCell>
        <mxCell id="mYdgeM181ZoT6w7scXNc-109" value="" style="endArrow=none;html=1;rounded=0;" edge="1" parent="1">
          <mxGeometry width="50" height="50" relative="1" as="geometry">
            <mxPoint x="-2481" y="425" as="sourcePoint" />
            <mxPoint x="-2291" y="425" as="targetPoint" />
          </mxGeometry>
        </mxCell>
        <mxCell id="mYdgeM181ZoT6w7scXNc-111" value="" style="shape=flexArrow;endArrow=classic;html=1;rounded=0;entryX=0.009;entryY=0.381;entryDx=0;entryDy=0;entryPerimeter=0;" edge="1" parent="1" target="mYdgeM181ZoT6w7scXNc-107">
          <mxGeometry width="50" height="50" relative="1" as="geometry">
            <mxPoint x="-2291" y="370" as="sourcePoint" />
            <mxPoint x="-1990" y="368" as="targetPoint" />
          </mxGeometry>
        </mxCell>
        <mxCell id="mYdgeM181ZoT6w7scXNc-112" value="" style="shape=flexArrow;endArrow=classic;html=1;rounded=0;entryX=1;entryY=0.5;entryDx=0;entryDy=0;" edge="1" parent="1">
          <mxGeometry width="50" height="50" relative="1" as="geometry">
            <mxPoint x="-1890" y="409" as="sourcePoint" />
            <mxPoint x="-2284" y="409.33" as="targetPoint" />
          </mxGeometry>
        </mxCell>
        <mxCell id="mYdgeM181ZoT6w7scXNc-114" value="" style="shape=flexArrow;endArrow=classic;startArrow=classic;html=1;rounded=0;" edge="1" parent="1">
          <mxGeometry width="100" height="100" relative="1" as="geometry">
            <mxPoint x="-1530" y="380.34000000000003" as="sourcePoint" />
            <mxPoint x="-960" y="379.16999999999996" as="targetPoint" />
            <Array as="points">
              <mxPoint x="-1260" y="379.16999999999996" />
            </Array>
          </mxGeometry>
        </mxCell>
        <mxCell id="mYdgeM181ZoT6w7scXNc-115" value="" style="shape=flexArrow;endArrow=classic;startArrow=classic;html=1;rounded=0;entryX=-0.053;entryY=0.531;entryDx=0;entryDy=0;entryPerimeter=0;" edge="1" parent="1" target="mYdgeM181ZoT6w7scXNc-91">
          <mxGeometry width="100" height="100" relative="1" as="geometry">
            <mxPoint x="-1520" y="633" as="sourcePoint" />
            <mxPoint x="-970" y="633.3299999999999" as="targetPoint" />
            <Array as="points">
              <mxPoint x="-1270" y="633.3299999999999" />
            </Array>
          </mxGeometry>
        </mxCell>
        <mxCell id="mYdgeM181ZoT6w7scXNc-116" value="&lt;div&gt;&lt;font style=&quot;font-size: 18px;&quot;&gt;Modelo Websocket&lt;/font&gt;&lt;/div&gt;" style="text;html=1;align=center;verticalAlign=middle;resizable=0;points=[];autosize=1;strokeColor=none;fillColor=none;" vertex="1" parent="1">
          <mxGeometry x="-2471" y="530" width="180" height="40" as="geometry" />
        </mxCell>
        <mxCell id="mYdgeM181ZoT6w7scXNc-117" value="&lt;div&gt;&lt;font style=&quot;font-size: 36px;&quot;&gt;/&lt;font&gt;websocket&lt;/font&gt;/...&lt;/font&gt;&lt;/div&gt;&lt;div&gt;&lt;font size=&quot;3&quot;&gt;server endpoint (jakarta)&lt;br&gt;&lt;/font&gt;&lt;/div&gt;" style="rounded=1;whiteSpace=wrap;html=1;" vertex="1" parent="1">
          <mxGeometry x="-990" y="860" width="310" height="150" as="geometry" />
        </mxCell>
        <mxCell id="mYdgeM181ZoT6w7scXNc-120" value="&lt;div&gt;&lt;font style=&quot;font-size: 18px;&quot;&gt;JWTAuthFilter&lt;/font&gt;&lt;/div&gt;" style="rounded=1;whiteSpace=wrap;html=1;" vertex="1" parent="1">
          <mxGeometry x="-553" y="820" width="140" height="80" as="geometry" />
        </mxCell>
        <mxCell id="mYdgeM181ZoT6w7scXNc-121" value="" style="shape=flexArrow;endArrow=classic;html=1;rounded=0;exitX=1.011;exitY=0.142;exitDx=0;exitDy=0;exitPerimeter=0;" edge="1" parent="1" source="mYdgeM181ZoT6w7scXNc-117">
          <mxGeometry width="50" height="50" relative="1" as="geometry">
            <mxPoint x="-660" y="881" as="sourcePoint" />
            <mxPoint x="-553" y="880.5" as="targetPoint" />
          </mxGeometry>
        </mxCell>
        <mxCell id="mYdgeM181ZoT6w7scXNc-122" value="" style="rounded=1;whiteSpace=wrap;html=1;" vertex="1" parent="1">
          <mxGeometry x="-290" y="810" width="150" height="150" as="geometry" />
        </mxCell>
        <mxCell id="mYdgeM181ZoT6w7scXNc-123" value="&lt;font style=&quot;font-size: 18px;&quot;&gt;Service&lt;/font&gt;" style="text;html=1;align=center;verticalAlign=middle;resizable=0;points=[];autosize=1;strokeColor=none;fillColor=none;" vertex="1" parent="1">
          <mxGeometry x="-260" y="770" width="80" height="40" as="geometry" />
        </mxCell>
        <mxCell id="mYdgeM181ZoT6w7scXNc-124" value="&lt;font style=&quot;font-size: 18px;&quot;&gt;onOpen&lt;/font&gt;" style="text;html=1;align=center;verticalAlign=middle;resizable=0;points=[];autosize=1;strokeColor=none;fillColor=none;" vertex="1" parent="1">
          <mxGeometry x="-260" y="840" width="90" height="40" as="geometry" />
        </mxCell>
        <mxCell id="mYdgeM181ZoT6w7scXNc-125" value="&lt;div&gt;&lt;font style=&quot;font-size: 18px;&quot;&gt;onMessage&lt;/font&gt;&lt;/div&gt;" style="text;html=1;align=center;verticalAlign=middle;resizable=0;points=[];autosize=1;strokeColor=none;fillColor=none;" vertex="1" parent="1">
          <mxGeometry x="-275" y="900" width="120" height="40" as="geometry" />
        </mxCell>
        <mxCell id="mYdgeM181ZoT6w7scXNc-126" value="" style="shape=flexArrow;endArrow=classic;html=1;rounded=0;entryX=0.007;entryY=0.34;entryDx=0;entryDy=0;entryPerimeter=0;" edge="1" parent="1" target="mYdgeM181ZoT6w7scXNc-122">
          <mxGeometry width="50" height="50" relative="1" as="geometry">
            <mxPoint x="-413" y="860" as="sourcePoint" />
            <mxPoint x="-112" y="858" as="targetPoint" />
          </mxGeometry>
        </mxCell>
        <mxCell id="mYdgeM181ZoT6w7scXNc-127" value="&lt;font style=&quot;font-size: 14px;&quot;&gt;JWT Token&lt;/font&gt;" style="text;html=1;align=center;verticalAlign=middle;resizable=0;points=[];autosize=1;strokeColor=none;fillColor=none;" vertex="1" parent="1">
          <mxGeometry x="-405" y="820" width="90" height="30" as="geometry" />
        </mxCell>
        <mxCell id="mYdgeM181ZoT6w7scXNc-128" value="" style="shape=flexArrow;endArrow=classic;html=1;rounded=0;exitX=-0.027;exitY=0.887;exitDx=0;exitDy=0;exitPerimeter=0;" edge="1" parent="1" source="mYdgeM181ZoT6w7scXNc-122">
          <mxGeometry width="50" height="50" relative="1" as="geometry">
            <mxPoint x="-500" y="939" as="sourcePoint" />
            <mxPoint x="-680" y="939" as="targetPoint" />
          </mxGeometry>
        </mxCell>
        <mxCell id="mYdgeM181ZoT6w7scXNc-129" value="&lt;font style=&quot;font-size: 18px;&quot;&gt;mensaje&lt;/font&gt;" style="text;html=1;align=center;verticalAlign=middle;resizable=0;points=[];autosize=1;strokeColor=none;fillColor=none;" vertex="1" parent="1">
          <mxGeometry x="-520" y="940" width="90" height="40" as="geometry" />
        </mxCell>
        <mxCell id="mYdgeM181ZoT6w7scXNc-130" value="&lt;font style=&quot;font-size: 18px;&quot;&gt;mensaje&lt;/font&gt;" style="text;html=1;align=center;verticalAlign=middle;resizable=0;points=[];autosize=1;strokeColor=none;fillColor=none;" vertex="1" parent="1">
          <mxGeometry x="-1630" y="1010" width="90" height="40" as="geometry" />
        </mxCell>
        <mxCell id="mYdgeM181ZoT6w7scXNc-131" value="" style="shape=flexArrow;endArrow=classic;startArrow=classic;html=1;rounded=0;" edge="1" parent="1">
          <mxGeometry width="100" height="100" relative="1" as="geometry">
            <mxPoint x="-140" y="890" as="sourcePoint" />
            <mxPoint x="840" y="800" as="targetPoint" />
            <Array as="points">
              <mxPoint x="842" y="890" />
            </Array>
          </mxGeometry>
        </mxCell>
        <mxCell id="mYdgeM181ZoT6w7scXNc-133" value="&lt;div&gt;&lt;font style=&quot;font-size: 18px;&quot;&gt;socket&lt;/font&gt;&lt;/div&gt;" style="rounded=1;whiteSpace=wrap;html=1;" vertex="1" parent="1">
          <mxGeometry x="20" y="910" width="120" height="210" as="geometry" />
        </mxCell>
        <mxCell id="mYdgeM181ZoT6w7scXNc-134" value="" style="shape=flexArrow;endArrow=classic;html=1;rounded=0;exitX=1.011;exitY=0.142;exitDx=0;exitDy=0;exitPerimeter=0;entryX=-0.007;entryY=0.142;entryDx=0;entryDy=0;entryPerimeter=0;" edge="1" parent="1" target="mYdgeM181ZoT6w7scXNc-133">
          <mxGeometry width="50" height="50" relative="1" as="geometry">
            <mxPoint x="-140" y="939.5" as="sourcePoint" />
            <mxPoint x="-16" y="939" as="targetPoint" />
          </mxGeometry>
        </mxCell>
        <mxCell id="mYdgeM181ZoT6w7scXNc-135" value="" style="shape=flexArrow;endArrow=classic;html=1;rounded=0;entryX=0.585;entryY=1.006;entryDx=0;entryDy=0;entryPerimeter=0;exitX=-0.037;exitY=0.687;exitDx=0;exitDy=0;exitPerimeter=0;" edge="1" parent="1" source="mYdgeM181ZoT6w7scXNc-133" target="mYdgeM181ZoT6w7scXNc-101">
          <mxGeometry width="50" height="50" relative="1" as="geometry">
            <mxPoint x="20" y="1020" as="sourcePoint" />
            <mxPoint x="-610" y="1021" as="targetPoint" />
            <Array as="points">
              <mxPoint x="-2370" y="1050" />
            </Array>
          </mxGeometry>
        </mxCell>
        <mxCell id="mYdgeM181ZoT6w7scXNc-136" value="" style="shape=flexArrow;endArrow=classic;html=1;rounded=0;entryX=0;entryY=0.5;entryDx=0;entryDy=0;" edge="1" parent="1" target="mYdgeM181ZoT6w7scXNc-117">
          <mxGeometry width="50" height="50" relative="1" as="geometry">
            <mxPoint x="-2290" y="562" as="sourcePoint" />
            <mxPoint x="-1886" y="560" as="targetPoint" />
            <Array as="points">
              <mxPoint x="-1300" y="935" />
            </Array>
          </mxGeometry>
        </mxCell>
        <mxCell id="mYdgeM181ZoT6w7scXNc-137" value="&lt;font style=&quot;font-size: 18px;&quot;&gt;interceptor&lt;/font&gt;" style="text;html=1;align=center;verticalAlign=middle;resizable=0;points=[];autosize=1;strokeColor=none;fillColor=none;" vertex="1" parent="1">
          <mxGeometry x="-415" y="380" width="110" height="40" as="geometry" />
        </mxCell>
        <mxCell id="mYdgeM181ZoT6w7scXNc-138" value="&lt;font style=&quot;font-size: 18px;&quot;&gt;Body&lt;/font&gt;" style="text;html=1;align=center;verticalAlign=middle;resizable=0;points=[];autosize=1;strokeColor=none;fillColor=none;" vertex="1" parent="1">
          <mxGeometry x="-60" y="310" width="60" height="40" as="geometry" />
        </mxCell>
        <mxCell id="mYdgeM181ZoT6w7scXNc-139" value="&lt;font style=&quot;font-size: 18px;&quot;&gt;@RequestBody&lt;/font&gt;" style="text;html=1;align=center;verticalAlign=middle;resizable=0;points=[];autosize=1;strokeColor=none;fillColor=none;" vertex="1" parent="1">
          <mxGeometry x="-105" y="635" width="150" height="40" as="geometry" />
        </mxCell>
        <mxCell id="mYdgeM181ZoT6w7scXNc-140" value="" style="shape=flexArrow;endArrow=classic;startArrow=classic;html=1;rounded=0;exitX=1.06;exitY=0.04;exitDx=0;exitDy=0;exitPerimeter=0;" edge="1" parent="1" source="mYdgeM181ZoT6w7scXNc-5">
          <mxGeometry width="100" height="100" relative="1" as="geometry">
            <mxPoint x="-280" y="704.23" as="sourcePoint" />
            <mxPoint x="-120" y="704.23" as="targetPoint" />
          </mxGeometry>
        </mxCell>
        <mxCell id="mYdgeM181ZoT6w7scXNc-143" value="&lt;font style=&quot;font-size: 18px;&quot;&gt;@RequestBody&lt;/font&gt;" style="text;html=1;align=center;verticalAlign=middle;resizable=0;points=[];autosize=1;strokeColor=none;fillColor=none;" vertex="1" parent="1">
          <mxGeometry x="-110" y="275" width="150" height="40" as="geometry" />
        </mxCell>
      </root>
    </mxGraphModel>
  </diagram>
</mxfile>
